<svg class="marks" width="454" height="414" viewBox="0 0 454 414" version="1.1" xmlns="http://www.w3.org/2000/svg" xmlns:xlink="http://www.w3.org/1999/xlink"><g transform="translate(52,5)"><g class="mark-group role-frame root"><g transform="translate(0,0)"><path class="background" d="M0.5,0.5h200v200h-200Z" style="fill: none; stroke: #ddd;"></path><g><g class="mark-group role-axis"><g transform="translate(0.5,0.5)"><path class="background" d="M0,0h0v0h0Z" style="pointer-events: none; fill: none;"></path><g><g class="mark-rule role-axis-grid" style="pointer-events: none;"><line transform="translate(0,200)" x2="200" y2="0" style="fill: none; stroke: #ddd; stroke-width: 1; opacity: 1;"></line><line transform="translate(0,156)" x2="200" y2="0" style="fill: none; stroke: #ddd; stroke-width: 1; opacity: 1;"></line><line transform="translate(0,111)" x2="200" y2="0" style="fill: none; stroke: #ddd; stroke-width: 1; opacity: 1;"></line><line transform="translate(0,67)" x2="200" y2="0" style="fill: none; stroke: #ddd; stroke-width: 1; opacity: 1;"></line><line transform="translate(0,22)" x2="200" y2="0" style="fill: none; stroke: #ddd; stroke-width: 1; opacity: 1;"></line></g></g></g></g><g class="mark-symbol role-mark marks"><path transform="translate(188.88888888888889,31.111111111111114)" d="M-2.7386127875258306,-2.7386127875258306h5.477225575051661v5.477225575051661h-5.477225575051661Z" style="fill: none; stroke: #9d755d; stroke-width: 2; opacity: 0.7;"></path><path transform="translate(122.22222222222223,73.33333333333334)" d="M-2.3717082451262845,0L2.3717082451262845,-2.7386127875258306L2.3717082451262845,2.7386127875258306Z" style="fill: none; stroke: #eeca3b; stroke-width: 2; opacity: 0.7;"></path><path transform="translate(166.66666666666666,17.7777777777778)" d="M2.7386127875258306,0A2.7386127875258306,2.7386127875258306,0,1,1,-2.7386127875258306,0A2.7386127875258306,2.7386127875258306,0,1,1,2.7386127875258306,0" style="fill: none; stroke: #bab0ac; stroke-width: 2; opacity: 0.7;"></path><path transform="translate(55.55555555555556,33.333333333333314)" d="M2.7386127875258306,0A2.7386127875258306,2.7386127875258306,0,1,1,-2.7386127875258306,0A2.7386127875258306,2.7386127875258306,0,1,1,2.7386127875258306,0" style="fill: none; stroke: #f58518; stroke-width: 2; opacity: 0.7;"></path><path transform="translate(33.333333333333336,106.66666666666667)" d="M-2.7386127875258306,-2.7386127875258306h5.477225575051661v5.477225575051661h-5.477225575051661Z" style="fill: none; stroke: #b279a2; stroke-width: 2; opacity: 0.7;"></path><path transform="translate(77.77777777777777,84.44444444444443)" d="M0,-2.3717082451262845L-2.7386127875258306,2.3717082451262845L2.7386127875258306,2.3717082451262845Z" style="fill: none; stroke: #4c78a8; stroke-width: 2; opacity: 0.7;"></path><path transform="translate(100,53.33333333333334)" d="M-2.7386127875258306,-1.0954451150103321L-2.7386127875258306,1.0954451150103321L-1.0954451150103321,1.0954451150103321L-1.0954451150103321,2.7386127875258306L1.0954451150103321,2.7386127875258306L1.0954451150103321,1.0954451150103321L2.7386127875258306,1.0954451150103321L2.7386127875258306,-1.0954451150103321L1.0954451150103321,-1.0954451150103321L1.0954451150103321,-2.7386127875258306L-1.0954451150103321,-2.7386127875258306L-1.0954451150103321,-1.0954451150103321Z" style="fill: none; stroke: #ff9da6; stroke-width: 2; opacity: 0.7;"></path><path transform="translate(11.111111111111114,44.44444444444443)" d="M2.3717082451262845,0L-2.3717082451262845,-2.7386127875258306L-2.3717082451262845,2.7386127875258306Z" style="fill: none; stroke: #e45756; stroke-width: 2; opacity: 0.7;"></path><path transform="translate(144.44444444444443,24.444444444444457)" d="M0,2.3717082451262845L-2.7386127875258306,-2.3717082451262845L2.7386127875258306,-2.3717082451262845Z" style="fill: none; stroke: #54a24b; stroke-width: 2; opacity: 0.7;"></path><path transform="translate(11.111111111111114,64.44444444444446)" d="M-2.7386127875258306,0L0,-2.7386127875258306L2.7386127875258306,0L0,2.7386127875258306Z" style="fill: none; stroke: #72b7b2; stroke-width: 2; opacity: 0.7;"></path></g><g class="mark-group role-legend"><g transform="translate(218,0)"><path class="background" d="M0,0h179v163h-179Z" style="pointer-events: none; fill: none;"></path><g><g class="mark-group role-legend-entry"><g transform="translate(0,16)"><path class="background" d="M0,0h0v0h0Z" style="pointer-events: none; fill: none;"></path><g><g class="mark-symbol role-legend-symbol" style="pointer-events: none;"><path transform="translate(5,5)" d="M5,0A5,5,0,1,1,-5,0A5,5,0,1,1,5,0" style="fill: none; stroke: #4c78a8; stroke-width: 1.5; opacity: 0.7;"></path><path transform="translate(5,20)" d="M5,0A5,5,0,1,1,-5,0A5,5,0,1,1,5,0" style="fill: none; stroke: #f58518; stroke-width: 1.5; opacity: 0.7;"></path><path transform="translate(5,35)" d="M5,0A5,5,0,1,1,-5,0A5,5,0,1,1,5,0" style="fill: none; stroke: #e45756; stroke-width: 1.5; opacity: 0.7;"></path><path transform="translate(5,50)" d="M5,0A5,5,0,1,1,-5,0A5,5,0,1,1,5,0" style="fill: none; stroke: #72b7b2; stroke-width: 1.5; opacity: 0.7;"></path><path transform="translate(5,65)" d="M5,0A5,5,0,1,1,-5,0A5,5,0,1,1,5,0" style="fill: none; stroke: #54a24b; stroke-width: 1.5; opacity: 0.7;"></path><path transform="translate(5,80)" d="M5,0A5,5,0,1,1,-5,0A5,5,0,1,1,5,0" style="fill: none; stroke: #eeca3b; stroke-width: 1.5; opacity: 0.7;"></path><path transform="translate(5,95)" d="M5,0A5,5,0,1,1,-5,0A5,5,0,1,1,5,0" style="fill: none; stroke: #b279a2; stroke-width: 1.5; opacity: 0.7;"></path><path transform="translate(5,110)" d="M5,0A5,5,0,1,1,-5,0A5,5,0,1,1,5,0" style="fill: none; stroke: #ff9da6; stroke-width: 1.5; opacity: 0.7;"></path><path transform="translate(5,125)" d="M5,0A5,5,0,1,1,-5,0A5,5,0,1,1,5,0" style="fill: none; stroke: #9d755d; stroke-width: 1.5; opacity: 0.7;"></path><path transform="translate(5,140)" d="M5,0A5,5,0,1,1,-5,0A5,5,0,1,1,5,0" style="fill: none; stroke: #bab0ac; stroke-width: 1.5; opacity: 0.7;"></path></g><g class="mark-text role-legend-label" style="pointer-events: none;"><text text-anchor="start" transform="translate(18,8)" style="font: 10px sans-serif; fill: #000; opacity: 1;">Courage now, truth always...</text><text text-anchor="start" transform="translate(18,23)" style="font: 10px sans-serif; fill: #000; opacity: 1;">Evil fears the knight.</text><text text-anchor="start" transform="translate(18,38)" style="font: 10px sans-serif; fill: #000; opacity: 1;">Have you ever danced with the …</text><text text-anchor="start" transform="translate(18,53)" style="font: 10px sans-serif; fill: #000; opacity: 1;">He's Here Big As Life In A Real …</text><text text-anchor="start" transform="translate(18,68)" style="font: 10px sans-serif; fill: #000; opacity: 1;">Justice Returns... Vengeance R…</text><text text-anchor="start" transform="translate(18,83)" style="font: 10px sans-serif; fill: #000; opacity: 1;">Justice or revenge</text><text text-anchor="start" transform="translate(18,98)" style="font: 10px sans-serif; fill: #000; opacity: 1;">Strength. Courage. Honor. And l…</text><text text-anchor="start" transform="translate(18,113)" style="font: 10px sans-serif; fill: #000; opacity: 1;">The Bat, the Cat, the Penguin.</text><text text-anchor="start" transform="translate(18,128)" style="font: 10px sans-serif; fill: #000; opacity: 1;">The Legend Ends</text><text text-anchor="start" transform="translate(18,143)" style="font: 10px sans-serif; fill: #000; opacity: 1;">Why So Serious?</text></g></g></g></g><g class="mark-text role-legend-title" style="pointer-events: none;"><text text-anchor="start" transform="translate(0,9)" style="font: bold 11px sans-serif; fill: #000; opacity: 1;">tagline</text></g></g></g></g><g class="mark-group role-legend"><g transform="translate(218,171)"><path class="background" d="M0,0h62v163h-62Z" style="pointer-events: none; fill: none;"></path><g><g class="mark-group role-legend-entry"><g transform="translate(0,16)"><path class="background" d="M0,0h0v0h0Z" style="pointer-events: none; fill: none;"></path><g><g class="mark-symbol role-legend-symbol" style="pointer-events: none;"><path transform="translate(5,5)" d="M5,0A5,5,0,1,1,-5,0A5,5,0,1,1,5,0" style="fill: none; stroke: #888; stroke-width: 1.5; opacity: 0.7;"></path><path transform="translate(5,20)" d="M-5,-5h10v10h-10Z" style="fill: none; stroke: #888; stroke-width: 1.5; opacity: 0.7;"></path><path transform="translate(5,35)" d="M0,-4.330127018922193L-5,4.330127018922193L5,4.330127018922193Z" style="fill: none; stroke: #888; stroke-width: 1.5; opacity: 0.7;"></path><path transform="translate(5,50)" d="M-5,-2L-5,2L-2,2L-2,5L2,5L2,2L5,2L5,-2L2,-2L2,-5L-2,-5L-2,-2Z" style="fill: none; stroke: #888; stroke-width: 1.5; opacity: 0.7;"></path><path transform="translate(5,65)" d="M-5,0L0,-5L5,0L0,5Z" style="fill: none; stroke: #888; stroke-width: 1.5; opacity: 0.7;"></path><path transform="translate(5,80)" d="M4.330127018922193,0L-4.330127018922193,-5L-4.330127018922193,5Z" style="fill: none; stroke: #888; stroke-width: 1.5; opacity: 0.7;"></path><path transform="translate(5,95)" d="M0,4.330127018922193L-5,-4.330127018922193L5,-4.330127018922193Z" style="fill: none; stroke: #888; stroke-width: 1.5; opacity: 0.7;"></path><path transform="translate(5,110)" d="M-4.330127018922193,0L4.330127018922193,-5L4.330127018922193,5Z" style="fill: none; stroke: #888; stroke-width: 1.5; opacity: 0.7;"></path><path transform="translate(5,125)" d="M5,0A5,5,0,1,1,-5,0A5,5,0,1,1,5,0" style="fill: none; stroke: #888; stroke-width: 1.5; opacity: 0.7;"></path><path transform="translate(5,140)" d="M-5,-5h10v10h-10Z" style="fill: none; stroke: #888; stroke-width: 1.5; opacity: 0.7;"></path></g><g class="mark-text role-legend-label" style="pointer-events: none;"><text text-anchor="start" transform="translate(18,8)" style="font: 10px sans-serif; fill: #000; opacity: 1;">12002</text><text text-anchor="start" transform="translate(18,23)" style="font: 10px sans-serif; fill: #000; opacity: 1;">1418</text><text text-anchor="start" transform="translate(18,38)" style="font: 10px sans-serif; fill: #000; opacity: 1;">1498</text><text text-anchor="start" transform="translate(18,53)" style="font: 10px sans-serif; fill: #000; opacity: 1;">1673</text><text text-anchor="start" transform="translate(18,68)" style="font: 10px sans-serif; fill: #000; opacity: 1;">203</text><text text-anchor="start" transform="translate(18,83)" style="font: 10px sans-serif; fill: #000; opacity: 1;">2096</text><text text-anchor="start" transform="translate(18,98)" style="font: 10px sans-serif; fill: #000; opacity: 1;">419</text><text text-anchor="start" transform="translate(18,113)" style="font: 10px sans-serif; fill: #000; opacity: 1;">7004</text><text text-anchor="start" transform="translate(18,128)" style="font: 10px sans-serif; fill: #000; opacity: 1;">7359</text><text text-anchor="start" transform="translate(18,143)" style="font: 10px sans-serif; fill: #000; opacity: 1;">9106</text></g></g></g></g><g class="mark-text role-legend-title" style="pointer-events: none;"><text text-anchor="start" transform="translate(0,9)" style="font: bold 11px sans-serif; fill: #000; opacity: 1;">vote_count</text></g></g></g></g><g class="mark-group role-axis"><g transform="translate(0.5,200.5)"><path class="background" d="M0,0h0v0h0Z" style="pointer-events: none; fill: none;"></path><g><g class="mark-rule role-axis-tick" style="pointer-events: none;"><line transform="translate(11,0)" x2="0" y2="5" style="fill: none; stroke: #888; stroke-width: 1; opacity: 1;"></line><line transform="translate(33,0)" x2="0" y2="5" style="fill: none; stroke: #888; stroke-width: 1; opacity: 1;"></line><line transform="translate(56,0)" x2="0" y2="5" style="fill: none; stroke: #888; stroke-width: 1; opacity: 1;"></line><line transform="translate(78,0)" x2="0" y2="5" style="fill: none; stroke: #888; stroke-width: 1; opacity: 1;"></line><line transform="translate(100,0)" x2="0" y2="5" style="fill: none; stroke: #888; stroke-width: 1; opacity: 1;"></line><line transform="translate(122,0)" x2="0" y2="5" style="fill: none; stroke: #888; stroke-width: 1; opacity: 1;"></line><line transform="translate(144,0)" x2="0" y2="5" style="fill: none; stroke: #888; stroke-width: 1; opacity: 1;"></line><line transform="translate(167,0)" x2="0" y2="5" style="fill: none; stroke: #888; stroke-width: 1; opacity: 1;"></line><line transform="translate(189,0)" x2="0" y2="5" style="fill: none; stroke: #888; stroke-width: 1; opacity: 1;"></line></g><g class="mark-text role-axis-label" style="pointer-events: none;"><text text-anchor="end" transform="translate(11.111111111111114,7) rotate(270) translate(0,3)" style="font: 10px sans-serif; fill: #000; opacity: 1;">Batman</text><text text-anchor="end" transform="translate(33.333333333333336,7) rotate(270) translate(0,3)" style="font: 10px sans-serif; fill: #000; opacity: 1;">Batman &amp; Robin</text><text text-anchor="end" transform="translate(55.55555555555556,7) rotate(270) translate(0,3)" style="font: 10px sans-serif; fill: #000; opacity: 1;">Batman Begins</text><text text-anchor="end" transform="translate(77.77777777777777,7) rotate(270) translate(0,3)" style="font: 10px sans-serif; fill: #000; opacity: 1;">Batman Forever</text><text text-anchor="end" transform="translate(100,7) rotate(270) translate(0,3)" style="font: 10px sans-serif; fill: #000; opacity: 1;">Batman Returns</text><text text-anchor="end" transform="translate(122.22222222222223,7) rotate(270) translate(0,3)" style="font: 10px sans-serif; fill: #000; opacity: 1;">Batman v Superman: Dawn of Justice</text><text text-anchor="end" transform="translate(144.44444444444443,7) rotate(270) translate(0,3)" style="font: 10px sans-serif; fill: #000; opacity: 1;">Batman: The Dark Knight Returns, P…</text><text text-anchor="end" transform="translate(166.66666666666666,7) rotate(270) translate(0,3)" style="font: 10px sans-serif; fill: #000; opacity: 1;">The Dark Knight</text><text text-anchor="end" transform="translate(188.88888888888889,7) rotate(270) translate(0,3)" style="font: 10px sans-serif; fill: #000; opacity: 1;">The Dark Knight Rises</text></g><g class="mark-rule role-axis-domain" style="pointer-events: none;"><line transform="translate(0,0)" x2="200" y2="0" style="fill: none; stroke: #888; stroke-width: 1; opacity: 1;"></line></g><g class="mark-text role-axis-title" style="pointer-events: none;"><text text-anchor="middle" transform="translate(100,200)" style="font: bold 11px sans-serif; fill: #000; opacity: 1;">original_title</text></g></g></g></g><g class="mark-group role-axis"><g transform="translate(0.5,0.5)"><path class="background" d="M0,0h0v0h0Z" style="pointer-events: none; fill: none;"></path><g><g class="mark-rule role-axis-tick" style="pointer-events: none;"><line transform="translate(0,200)" x2="-5" y2="0" style="fill: none; stroke: #888; stroke-width: 1; opacity: 1;"></line><line transform="translate(0,156)" x2="-5" y2="0" style="fill: none; stroke: #888; stroke-width: 1; opacity: 1;"></line><line transform="translate(0,111)" x2="-5" y2="0" style="fill: none; stroke: #888; stroke-width: 1; opacity: 1;"></line><line transform="translate(0,67)" x2="-5" y2="0" style="fill: none; stroke: #888; stroke-width: 1; opacity: 1;"></line><line transform="translate(0,22)" x2="-5" y2="0" style="fill: none; stroke: #888; stroke-width: 1; opacity: 1;"></line></g><g class="mark-text role-axis-label" style="pointer-events: none;"><text text-anchor="end" transform="translate(-7,203)" style="font: 10px sans-serif; fill: #000; opacity: 1;">0</text><text text-anchor="end" transform="translate(-7,158.55555555555554)" style="font: 10px sans-serif; fill: #000; opacity: 1;">2</text><text text-anchor="end" transform="translate(-7,114.11111111111111)" style="font: 10px sans-serif; fill: #000; opacity: 1;">4</text><text text-anchor="end" transform="translate(-7,69.66666666666669)" style="font: 10px sans-serif; fill: #000; opacity: 1;">6</text><text text-anchor="end" transform="translate(-7,25.22222222222223)" style="font: 10px sans-serif; fill: #000; opacity: 1;">8</text></g><g class="mark-rule role-axis-domain" style="pointer-events: none;"><line transform="translate(0,200)" x2="0" y2="-200" style="fill: none; stroke: #888; stroke-width: 1; opacity: 1;"></line></g><g class="mark-text role-axis-title" style="pointer-events: none;"><text text-anchor="middle" transform="translate(-34,100) rotate(-90) translate(0,-2)" style="font: bold 11px sans-serif; fill: #000; opacity: 1;">vote_average</text></g></g></g></g></g></g></g></g></svg>