<svg class="marks" width="453" height="408" viewBox="0 0 453 408" version="1.1" xmlns="http://www.w3.org/2000/svg" xmlns:xlink="http://www.w3.org/1999/xlink"><g transform="translate(52,11)"><g class="mark-group role-frame root"><g transform="translate(0,0)"><path class="background" d="M0.5,0.5h200v200h-200Z" style="fill: none; stroke: #ddd;"></path><g><g class="mark-group role-axis"><g transform="translate(0.5,0.5)"><path class="background" d="M0,0h0v0h0Z" style="pointer-events: none; fill: none;"></path><g><g class="mark-rule role-axis-grid" style="pointer-events: none;"><line transform="translate(0,200)" x2="200" y2="0" style="fill: none; stroke: #ddd; stroke-width: 1; opacity: 1;"></line><line transform="translate(0,150)" x2="200" y2="0" style="fill: none; stroke: #ddd; stroke-width: 1; opacity: 1;"></line><line transform="translate(0,100)" x2="200" y2="0" style="fill: none; stroke: #ddd; stroke-width: 1; opacity: 1;"></line><line transform="translate(0,50)" x2="200" y2="0" style="fill: none; stroke: #ddd; stroke-width: 1; opacity: 1;"></line><line transform="translate(0,0)" x2="200" y2="0" style="fill: none; stroke: #ddd; stroke-width: 1; opacity: 1;"></line></g></g></g></g><g class="mark-symbol role-mark marks"><path transform="translate(100,22.5)" d="M-2.7386127875258306,-1.0954451150103321L-2.7386127875258306,1.0954451150103321L-1.0954451150103321,1.0954451150103321L-1.0954451150103321,2.7386127875258306L1.0954451150103321,2.7386127875258306L1.0954451150103321,1.0954451150103321L2.7386127875258306,1.0954451150103321L2.7386127875258306,-1.0954451150103321L1.0954451150103321,-1.0954451150103321L1.0954451150103321,-2.7386127875258306L-1.0954451150103321,-2.7386127875258306L-1.0954451150103321,-1.0954451150103321Z" style="fill: none; stroke: #4c78a8; stroke-width: 2; opacity: 0.7;"></path><path transform="translate(180,37.5)" d="M-2.7386127875258306,-2.7386127875258306h5.477225575051661v5.477225575051661h-5.477225575051661Z" style="fill: none; stroke: #54a24b; stroke-width: 2; opacity: 0.7;"></path><path transform="translate(60,30)" d="M-2.7386127875258306,0L0,-2.7386127875258306L2.7386127875258306,0L0,2.7386127875258306Z" style="fill: none; stroke: #72b7b2; stroke-width: 2; opacity: 0.7;"></path><path transform="translate(140,52.5)" d="M2.7386127875258306,0A2.7386127875258306,2.7386127875258306,0,1,1,-2.7386127875258306,0A2.7386127875258306,2.7386127875258306,0,1,1,2.7386127875258306,0" style="fill: none; stroke: #e45756; stroke-width: 2; opacity: 0.7;"></path><path transform="translate(20,32.5)" d="M0,-2.3717082451262845L-2.7386127875258306,2.3717082451262845L2.7386127875258306,2.3717082451262845Z" style="fill: none; stroke: #f58518; stroke-width: 2; opacity: 0.7;"></path></g><g class="mark-group role-legend"><g transform="translate(218,0)"><path class="background" d="M0,0h178v88h-178Z" style="pointer-events: none; fill: none;"></path><g><g class="mark-group role-legend-entry"><g transform="translate(0,16)"><path class="background" d="M0,0h0v0h0Z" style="pointer-events: none; fill: none;"></path><g><g class="mark-symbol role-legend-symbol" style="pointer-events: none;"><path transform="translate(5,5)" d="M5,0A5,5,0,1,1,-5,0A5,5,0,1,1,5,0" style="fill: none; stroke: #4c78a8; stroke-width: 1.5; opacity: 0.7;"></path><path transform="translate(5,20)" d="M5,0A5,5,0,1,1,-5,0A5,5,0,1,1,5,0" style="fill: none; stroke: #f58518; stroke-width: 1.5; opacity: 0.7;"></path><path transform="translate(5,35)" d="M5,0A5,5,0,1,1,-5,0A5,5,0,1,1,5,0" style="fill: none; stroke: #e45756; stroke-width: 1.5; opacity: 0.7;"></path><path transform="translate(5,50)" d="M5,0A5,5,0,1,1,-5,0A5,5,0,1,1,5,0" style="fill: none; stroke: #72b7b2; stroke-width: 1.5; opacity: 0.7;"></path><path transform="translate(5,65)" d="M5,0A5,5,0,1,1,-5,0A5,5,0,1,1,5,0" style="fill: none; stroke: #54a24b; stroke-width: 1.5; opacity: 0.7;"></path></g><g class="mark-text role-legend-label" style="pointer-events: none;"><text text-anchor="start" transform="translate(18,8)" style="font: 10px sans-serif; fill: #000; opacity: 1;">Desperate Times. Desperate Me…</text><text text-anchor="start" transform="translate(18,23)" style="font: 10px sans-serif; fill: #000; opacity: 1;">Expect the Impossible.</text><text text-anchor="start" transform="translate(18,38)" style="font: 10px sans-serif; fill: #000; opacity: 1;">Expect the impossible again.</text><text text-anchor="start" transform="translate(18,53)" style="font: 10px sans-serif; fill: #000; opacity: 1;">No Plan. No Backup. No Choice.</text><text text-anchor="start" transform="translate(18,68)" style="font: 10px sans-serif; fill: #000; opacity: 1;">The Mission Begins 05:05:06.</text></g></g></g></g><g class="mark-text role-legend-title" style="pointer-events: none;"><text text-anchor="start" transform="translate(0,9)" style="font: bold 11px sans-serif; fill: #000; opacity: 1;">tagline</text></g></g></g></g><g class="mark-group role-legend"><g transform="translate(218,96)"><path class="background" d="M0,0h62v88h-62Z" style="pointer-events: none; fill: none;"></path><g><g class="mark-group role-legend-entry"><g transform="translate(0,16)"><path class="background" d="M0,0h0v0h0Z" style="pointer-events: none; fill: none;"></path><g><g class="mark-symbol role-legend-symbol" style="pointer-events: none;"><path transform="translate(5,5)" d="M5,0A5,5,0,1,1,-5,0A5,5,0,1,1,5,0" style="fill: none; stroke: #888; stroke-width: 1.5; opacity: 0.7;"></path><path transform="translate(5,20)" d="M-5,-5h10v10h-10Z" style="fill: none; stroke: #888; stroke-width: 1.5; opacity: 0.7;"></path><path transform="translate(5,35)" d="M0,-4.330127018922193L-5,4.330127018922193L5,4.330127018922193Z" style="fill: none; stroke: #888; stroke-width: 1.5; opacity: 0.7;"></path><path transform="translate(5,50)" d="M-5,-2L-5,2L-2,2L-2,5L2,5L2,2L5,2L5,-2L2,-2L2,-5L-2,-5L-2,-2Z" style="fill: none; stroke: #888; stroke-width: 1.5; opacity: 0.7;"></path><path transform="translate(5,65)" d="M-5,0L0,-5L5,0L0,5Z" style="fill: none; stroke: #888; stroke-width: 1.5; opacity: 0.7;"></path></g><g class="mark-text role-legend-label" style="pointer-events: none;"><text text-anchor="start" transform="translate(18,8)" style="font: 10px sans-serif; fill: #000; opacity: 1;">1928</text><text text-anchor="start" transform="translate(18,23)" style="font: 10px sans-serif; fill: #000; opacity: 1;">2028</text><text text-anchor="start" transform="translate(18,38)" style="font: 10px sans-serif; fill: #000; opacity: 1;">2631</text><text text-anchor="start" transform="translate(18,53)" style="font: 10px sans-serif; fill: #000; opacity: 1;">3224</text><text text-anchor="start" transform="translate(18,68)" style="font: 10px sans-serif; fill: #000; opacity: 1;">3972</text></g></g></g></g><g class="mark-text role-legend-title" style="pointer-events: none;"><text text-anchor="start" transform="translate(0,9)" style="font: bold 11px sans-serif; fill: #000; opacity: 1;">vote_count</text></g></g></g></g><g class="mark-group role-axis"><g transform="translate(0.5,200.5)"><path class="background" d="M0,0h0v0h0Z" style="pointer-events: none; fill: none;"></path><g><g class="mark-rule role-axis-tick" style="pointer-events: none;"><line transform="translate(20,0)" x2="0" y2="5" style="fill: none; stroke: #888; stroke-width: 1; opacity: 1;"></line><line transform="translate(60,0)" x2="0" y2="5" style="fill: none; stroke: #888; stroke-width: 1; opacity: 1;"></line><line transform="translate(100,0)" x2="0" y2="5" style="fill: none; stroke: #888; stroke-width: 1; opacity: 1;"></line><line transform="translate(140,0)" x2="0" y2="5" style="fill: none; stroke: #888; stroke-width: 1; opacity: 1;"></line><line transform="translate(180,0)" x2="0" y2="5" style="fill: none; stroke: #888; stroke-width: 1; opacity: 1;"></line></g><g class="mark-text role-axis-label" style="pointer-events: none;"><text text-anchor="end" transform="translate(20,7) rotate(270) translate(0,3)" style="font: 10px sans-serif; fill: #000; opacity: 1;">Mission: Impossible</text><text text-anchor="end" transform="translate(60,7) rotate(270) translate(0,3)" style="font: 10px sans-serif; fill: #000; opacity: 1;">Mission: Impossible - Ghost Protocol</text><text text-anchor="end" transform="translate(100,7) rotate(270) translate(0,3)" style="font: 10px sans-serif; fill: #000; opacity: 1;">Mission: Impossible - Rogue Nation</text><text text-anchor="end" transform="translate(140,7) rotate(270) translate(0,3)" style="font: 10px sans-serif; fill: #000; opacity: 1;">Mission: Impossible II</text><text text-anchor="end" transform="translate(180,7) rotate(270) translate(0,3)" style="font: 10px sans-serif; fill: #000; opacity: 1;">Mission: Impossible III</text></g><g class="mark-rule role-axis-domain" style="pointer-events: none;"><line transform="translate(0,0)" x2="200" y2="0" style="fill: none; stroke: #888; stroke-width: 1; opacity: 1;"></line></g><g class="mark-text role-axis-title" style="pointer-events: none;"><text text-anchor="middle" transform="translate(100,188)" style="font: bold 11px sans-serif; fill: #000; opacity: 1;">original_title</text></g></g></g></g><g class="mark-group role-axis"><g transform="translate(0.5,0.5)"><path class="background" d="M0,0h0v0h0Z" style="pointer-events: none; fill: none;"></path><g><g class="mark-rule role-axis-tick" style="pointer-events: none;"><line transform="translate(0,200)" x2="-5" y2="0" style="fill: none; stroke: #888; stroke-width: 1; opacity: 1;"></line><line transform="translate(0,150)" x2="-5" y2="0" style="fill: none; stroke: #888; stroke-width: 1; opacity: 1;"></line><line transform="translate(0,100)" x2="-5" y2="0" style="fill: none; stroke: #888; stroke-width: 1; opacity: 1;"></line><line transform="translate(0,50)" x2="-5" y2="0" style="fill: none; stroke: #888; stroke-width: 1; opacity: 1;"></line><line transform="translate(0,0)" x2="-5" y2="0" style="fill: none; stroke: #888; stroke-width: 1; opacity: 1;"></line></g><g class="mark-text role-axis-label" style="pointer-events: none;"><text text-anchor="end" transform="translate(-7,203)" style="font: 10px sans-serif; fill: #000; opacity: 1;">0</text><text text-anchor="end" transform="translate(-7,153)" style="font: 10px sans-serif; fill: #000; opacity: 1;">2</text><text text-anchor="end" transform="translate(-7,103)" style="font: 10px sans-serif; fill: #000; opacity: 1;">4</text><text text-anchor="end" transform="translate(-7,53)" style="font: 10px sans-serif; fill: #000; opacity: 1;">6</text><text text-anchor="end" transform="translate(-7,3)" style="font: 10px sans-serif; fill: #000; opacity: 1;">8</text></g><g class="mark-rule role-axis-domain" style="pointer-events: none;"><line transform="translate(0,200)" x2="0" y2="-200" style="fill: none; stroke: #888; stroke-width: 1; opacity: 1;"></line></g><g class="mark-text role-axis-title" style="pointer-events: none;"><text text-anchor="middle" transform="translate(-34,100) rotate(-90) translate(0,-2)" style="font: bold 11px sans-serif; fill: #000; opacity: 1;">vote_average</text></g></g></g></g></g></g></g></g></svg>