<svg class="marks" width="581" height="401" viewBox="0 0 581 401" version="1.1" xmlns="http://www.w3.org/2000/svg" xmlns:xlink="http://www.w3.org/1999/xlink"><g transform="translate(99,11)"><g class="mark-group role-frame root"><g transform="translate(0,0)"><path class="background" d="M0.5,0.5h350v350h-350Z" style="fill: none; stroke: #ddd;"></path><g><g class="mark-group role-axis"><g transform="translate(0.5,350.5)"><path class="background" d="M0,0h0v0h0Z" style="pointer-events: none; fill: none;"></path><g><g class="mark-rule role-axis-grid" style="pointer-events: none;"><line transform="translate(0,-350)" x2="0" y2="350" style="fill: none; stroke: #ddd; stroke-width: 1; opacity: 1;"></line><line transform="translate(39,-350)" x2="0" y2="350" style="fill: none; stroke: #ddd; stroke-width: 1; opacity: 1;"></line><line transform="translate(78,-350)" x2="0" y2="350" style="fill: none; stroke: #ddd; stroke-width: 1; opacity: 1;"></line><line transform="translate(117,-350)" x2="0" y2="350" style="fill: none; stroke: #ddd; stroke-width: 1; opacity: 1;"></line><line transform="translate(156,-350)" x2="0" y2="350" style="fill: none; stroke: #ddd; stroke-width: 1; opacity: 1;"></line><line transform="translate(194,-350)" x2="0" y2="350" style="fill: none; stroke: #ddd; stroke-width: 1; opacity: 1;"></line><line transform="translate(233,-350)" x2="0" y2="350" style="fill: none; stroke: #ddd; stroke-width: 1; opacity: 1;"></line><line transform="translate(272,-350)" x2="0" y2="350" style="fill: none; stroke: #ddd; stroke-width: 1; opacity: 1;"></line><line transform="translate(311,-350)" x2="0" y2="350" style="fill: none; stroke: #ddd; stroke-width: 1; opacity: 1;"></line><line transform="translate(350,-350)" x2="0" y2="350" style="fill: none; stroke: #ddd; stroke-width: 1; opacity: 1;"></line></g></g></g></g><g class="mark-group role-axis"><g transform="translate(0.5,0.5)"><path class="background" d="M0,0h0v0h0Z" style="pointer-events: none; fill: none;"></path><g><g class="mark-rule role-axis-grid" style="pointer-events: none;"><line transform="translate(0,350)" x2="350" y2="0" style="fill: none; stroke: #ddd; stroke-width: 1; opacity: 1;"></line><line transform="translate(0,315)" x2="350" y2="0" style="fill: none; stroke: #ddd; stroke-width: 1; opacity: 1;"></line><line transform="translate(0,280)" x2="350" y2="0" style="fill: none; stroke: #ddd; stroke-width: 1; opacity: 1;"></line><line transform="translate(0,245)" x2="350" y2="0" style="fill: none; stroke: #ddd; stroke-width: 1; opacity: 1;"></line><line transform="translate(0,210)" x2="350" y2="0" style="fill: none; stroke: #ddd; stroke-width: 1; opacity: 1;"></line><line transform="translate(0,175)" x2="350" y2="0" style="fill: none; stroke: #ddd; stroke-width: 1; opacity: 1;"></line><line transform="translate(0,140)" x2="350" y2="0" style="fill: none; stroke: #ddd; stroke-width: 1; opacity: 1;"></line><line transform="translate(0,105)" x2="350" y2="0" style="fill: none; stroke: #ddd; stroke-width: 1; opacity: 1;"></line><line transform="translate(0,70)" x2="350" y2="0" style="fill: none; stroke: #ddd; stroke-width: 1; opacity: 1;"></line><line transform="translate(0,35)" x2="350" y2="0" style="fill: none; stroke: #ddd; stroke-width: 1; opacity: 1;"></line><line transform="translate(0,0)" x2="350" y2="0" style="fill: none; stroke: #ddd; stroke-width: 1; opacity: 1;"></line></g></g></g></g><g class="mark-symbol role-mark marks"><path transform="translate(320.8333333333333,86.58969655000004)" d="M2.7386127875258306,0A2.7386127875258306,2.7386127875258306,0,1,1,-2.7386127875258306,0A2.7386127875258306,2.7386127875258306,0,1,1,2.7386127875258306,0" style="fill: #e45756; stroke-width: 2; opacity: 0.7;"></path><path transform="translate(311.1111111111111,70.36464224999997)" d="M2.7386127875258306,0A2.7386127875258306,2.7386127875258306,0,1,1,-2.7386127875258306,0A2.7386127875258306,2.7386127875258306,0,1,1,2.7386127875258306,0" style="fill: #72b7b2; stroke-width: 2; opacity: 0.7;"></path><path transform="translate(291.6666666666667,28.05643470000001)" d="M2.7386127875258306,0A2.7386127875258306,2.7386127875258306,0,1,1,-2.7386127875258306,0A2.7386127875258306,2.7386127875258306,0,1,1,2.7386127875258306,0" style="fill: #f58518; stroke-width: 2; opacity: 0.7;"></path><path transform="translate(116.66666666666666,180.4567737)" d="M2.7386127875258306,0A2.7386127875258306,2.7386127875258306,0,1,1,-2.7386127875258306,0A2.7386127875258306,2.7386127875258306,0,1,1,2.7386127875258306,0" style="fill: #4c78a8; stroke-width: 2; opacity: 0.7;"></path></g><g class="mark-group role-legend"><g transform="translate(368,0)"><path class="background" d="M0,0h109v72h-109Z" style="pointer-events: none; fill: none;"></path><g><g class="mark-group role-legend-entry"><g transform="translate(0,16)"><path class="background" d="M0,0h0v0h0Z" style="pointer-events: none; fill: none;"></path><g><g class="mark-symbol role-legend-symbol" style="pointer-events: none;"><path transform="translate(5,5)" d="M5,0A5,5,0,1,1,-5,0A5,5,0,1,1,5,0" style="fill: #4c78a8; stroke-width: 1.5; opacity: 0.7;"></path><path transform="translate(5,20)" d="M5,0A5,5,0,1,1,-5,0A5,5,0,1,1,5,0" style="fill: #f58518; stroke-width: 1.5; opacity: 0.7;"></path><path transform="translate(5,35)" d="M5,0A5,5,0,1,1,-5,0A5,5,0,1,1,5,0" style="fill: #e45756; stroke-width: 1.5; opacity: 0.7;"></path><path transform="translate(5,50)" d="M5,0A5,5,0,1,1,-5,0A5,5,0,1,1,5,0" style="fill: #72b7b2; stroke-width: 1.5; opacity: 0.7;"></path></g><g class="mark-text role-legend-label" style="pointer-events: none;"><text text-anchor="start" transform="translate(18,8)" style="font: 10px sans-serif; fill: #000; opacity: 1;">Shrek</text><text text-anchor="start" transform="translate(18,23)" style="font: 10px sans-serif; fill: #000; opacity: 1;">Shrek 2</text><text text-anchor="start" transform="translate(18,38)" style="font: 10px sans-serif; fill: #000; opacity: 1;">Shrek Forever After</text><text text-anchor="start" transform="translate(18,53)" style="font: 10px sans-serif; fill: #000; opacity: 1;">Shrek the Third</text></g></g></g></g><g class="mark-text role-legend-title" style="pointer-events: none;"><text text-anchor="start" transform="translate(0,9)" style="font: bold 11px sans-serif; fill: #000; opacity: 1;">original_title</text></g></g></g></g><g class="mark-group role-axis"><g transform="translate(0.5,350.5)"><path class="background" d="M0,0h0v0h0Z" style="pointer-events: none; fill: none;"></path><g><g class="mark-rule role-axis-tick" style="pointer-events: none;"><line transform="translate(0,0)" x2="0" y2="5" style="fill: none; stroke: #888; stroke-width: 1; opacity: 1;"></line><line transform="translate(39,0)" x2="0" y2="5" style="fill: none; stroke: #888; stroke-width: 1; opacity: 1;"></line><line transform="translate(78,0)" x2="0" y2="5" style="fill: none; stroke: #888; stroke-width: 1; opacity: 1;"></line><line transform="translate(117,0)" x2="0" y2="5" style="fill: none; stroke: #888; stroke-width: 1; opacity: 1;"></line><line transform="translate(156,0)" x2="0" y2="5" style="fill: none; stroke: #888; stroke-width: 1; opacity: 1;"></line><line transform="translate(194,0)" x2="0" y2="5" style="fill: none; stroke: #888; stroke-width: 1; opacity: 1;"></line><line transform="translate(233,0)" x2="0" y2="5" style="fill: none; stroke: #888; stroke-width: 1; opacity: 1;"></line><line transform="translate(272,0)" x2="0" y2="5" style="fill: none; stroke: #888; stroke-width: 1; opacity: 1;"></line><line transform="translate(311,0)" x2="0" y2="5" style="fill: none; stroke: #888; stroke-width: 1; opacity: 1;"></line><line transform="translate(350,0)" x2="0" y2="5" style="fill: none; stroke: #888; stroke-width: 1; opacity: 1;"></line></g><g class="mark-text role-axis-label" style="pointer-events: none;"><text text-anchor="start" transform="translate(0,15)" style="font: 10px sans-serif; fill: #000; opacity: 1;">0</text><text text-anchor="middle" transform="translate(38.888888888888886,15)" style="font: 10px sans-serif; fill: #000; opacity: 0;">20,000,000</text><text text-anchor="middle" transform="translate(77.77777777777777,15)" style="font: 10px sans-serif; fill: #000; opacity: 1;">40,000,000</text><text text-anchor="middle" transform="translate(116.66666666666666,15)" style="font: 10px sans-serif; fill: #000; opacity: 0;">60,000,000</text><text text-anchor="middle" transform="translate(155.55555555555554,15)" style="font: 10px sans-serif; fill: #000; opacity: 1;">80,000,000</text><text text-anchor="middle" transform="translate(194.44444444444446,15)" style="font: 10px sans-serif; fill: #000; opacity: 0;">100,000,000</text><text text-anchor="middle" transform="translate(233.33333333333331,15)" style="font: 10px sans-serif; fill: #000; opacity: 1;">120,000,000</text><text text-anchor="middle" transform="translate(272.22222222222223,15)" style="font: 10px sans-serif; fill: #000; opacity: 0;">140,000,000</text><text text-anchor="middle" transform="translate(311.1111111111111,15)" style="font: 10px sans-serif; fill: #000; opacity: 1;">160,000,000</text><text text-anchor="end" transform="translate(350,15)" style="font: 10px sans-serif; fill: #000; opacity: 0;">180,000,000</text></g><g class="mark-rule role-axis-domain" style="pointer-events: none;"><line transform="translate(0,0)" x2="350" y2="0" style="fill: none; stroke: #888; stroke-width: 1; opacity: 1;"></line></g><g class="mark-text role-axis-title" style="pointer-events: none;"><text text-anchor="middle" transform="translate(175,31)" style="font: bold 11px sans-serif; fill: #000; opacity: 1;">budget</text></g></g></g></g><g class="mark-group role-axis"><g transform="translate(0.5,0.5)"><path class="background" d="M0,0h0v0h0Z" style="pointer-events: none; fill: none;"></path><g><g class="mark-rule role-axis-tick" style="pointer-events: none;"><line transform="translate(0,350)" x2="-5" y2="0" style="fill: none; stroke: #888; stroke-width: 1; opacity: 1;"></line><line transform="translate(0,315)" x2="-5" y2="0" style="fill: none; stroke: #888; stroke-width: 1; opacity: 1;"></line><line transform="translate(0,280)" x2="-5" y2="0" style="fill: none; stroke: #888; stroke-width: 1; opacity: 1;"></line><line transform="translate(0,245)" x2="-5" y2="0" style="fill: none; stroke: #888; stroke-width: 1; opacity: 1;"></line><line transform="translate(0,210)" x2="-5" y2="0" style="fill: none; stroke: #888; stroke-width: 1; opacity: 1;"></line><line transform="translate(0,175)" x2="-5" y2="0" style="fill: none; stroke: #888; stroke-width: 1; opacity: 1;"></line><line transform="translate(0,140)" x2="-5" y2="0" style="fill: none; stroke: #888; stroke-width: 1; opacity: 1;"></line><line transform="translate(0,105)" x2="-5" y2="0" style="fill: none; stroke: #888; stroke-width: 1; opacity: 1;"></line><line transform="translate(0,70)" x2="-5" y2="0" style="fill: none; stroke: #888; stroke-width: 1; opacity: 1;"></line><line transform="translate(0,35)" x2="-5" y2="0" style="fill: none; stroke: #888; stroke-width: 1; opacity: 1;"></line><line transform="translate(0,0)" x2="-5" y2="0" style="fill: none; stroke: #888; stroke-width: 1; opacity: 1;"></line></g><g class="mark-text role-axis-label" style="pointer-events: none;"><text text-anchor="end" transform="translate(-7,353)" style="font: 10px sans-serif; fill: #000; opacity: 1;">0</text><text text-anchor="end" transform="translate(-7,318)" style="font: 10px sans-serif; fill: #000; opacity: 1;">100,000,000</text><text text-anchor="end" transform="translate(-7,283)" style="font: 10px sans-serif; fill: #000; opacity: 1;">200,000,000</text><text text-anchor="end" transform="translate(-7,248)" style="font: 10px sans-serif; fill: #000; opacity: 1;">300,000,000</text><text text-anchor="end" transform="translate(-7,213)" style="font: 10px sans-serif; fill: #000; opacity: 1;">400,000,000</text><text text-anchor="end" transform="translate(-7,178)" style="font: 10px sans-serif; fill: #000; opacity: 1;">500,000,000</text><text text-anchor="end" transform="translate(-7,143)" style="font: 10px sans-serif; fill: #000; opacity: 1;">600,000,000</text><text text-anchor="end" transform="translate(-7,108.00000000000003)" style="font: 10px sans-serif; fill: #000; opacity: 1;">700,000,000</text><text text-anchor="end" transform="translate(-7,73)" style="font: 10px sans-serif; fill: #000; opacity: 1;">800,000,000</text><text text-anchor="end" transform="translate(-7,38)" style="font: 10px sans-serif; fill: #000; opacity: 1;">900,000,000</text><text text-anchor="end" transform="translate(-7,3)" style="font: 10px sans-serif; fill: #000; opacity: 1;">1,000,000,000</text></g><g class="mark-rule role-axis-domain" style="pointer-events: none;"><line transform="translate(0,350)" x2="0" y2="-350" style="fill: none; stroke: #888; stroke-width: 1; opacity: 1;"></line></g><g class="mark-text role-axis-title" style="pointer-events: none;"><text text-anchor="middle" transform="translate(-81,175) rotate(-90) translate(0,-2)" style="font: bold 11px sans-serif; fill: #000; opacity: 1;">revenue</text></g></g></g></g></g></g></g></g></svg>