<svg class="marks" width="552" height="518" viewBox="0 0 552 518" version="1.1" xmlns="http://www.w3.org/2000/svg" xmlns:xlink="http://www.w3.org/1999/xlink"><g transform="translate(52,11)"><g class="mark-group role-frame root"><g transform="translate(0,0)"><path class="background" d="M0.5,0.5h300v300h-300Z" style="fill: none; stroke: #ddd;"></path><g><g class="mark-group role-axis"><g transform="translate(0.5,0.5)"><path class="background" d="M0,0h0v0h0Z" style="pointer-events: none; fill: none;"></path><g><g class="mark-rule role-axis-grid" style="pointer-events: none;"><line transform="translate(0,300)" x2="300" y2="0" style="fill: none; stroke: #ddd; stroke-width: 1; opacity: 1;"></line><line transform="translate(0,263)" x2="300" y2="0" style="fill: none; stroke: #ddd; stroke-width: 1; opacity: 1;"></line><line transform="translate(0,225)" x2="300" y2="0" style="fill: none; stroke: #ddd; stroke-width: 1; opacity: 1;"></line><line transform="translate(0,188)" x2="300" y2="0" style="fill: none; stroke: #ddd; stroke-width: 1; opacity: 1;"></line><line transform="translate(0,150)" x2="300" y2="0" style="fill: none; stroke: #ddd; stroke-width: 1; opacity: 1;"></line><line transform="translate(0,113)" x2="300" y2="0" style="fill: none; stroke: #ddd; stroke-width: 1; opacity: 1;"></line><line transform="translate(0,75)" x2="300" y2="0" style="fill: none; stroke: #ddd; stroke-width: 1; opacity: 1;"></line><line transform="translate(0,38)" x2="300" y2="0" style="fill: none; stroke: #ddd; stroke-width: 1; opacity: 1;"></line><line transform="translate(0,0)" x2="300" y2="0" style="fill: none; stroke: #ddd; stroke-width: 1; opacity: 1;"></line></g></g></g></g><g class="mark-rect role-mark marks"><path d="M126.25,6.4086825000000545h22.5v293.59131749999995h-22.5Z" style="fill: #eeca3b;"></path><path d="M26.25,54.92657625000001h22.5v245.07342375h-22.5Z" style="fill: #f58518;"></path><path d="M1.25,23.936969999999974h22.5v276.06303h-22.5Z" style="fill: #4c78a8;"></path><path d="M251.25,218.97925125h22.5v81.02074875h-22.5Z" style="fill: #4c78a8;"></path><path d="M201.25,203.732625h22.5v96.26737499999999h-22.5Z" style="fill: #9d755d;"></path><path d="M226.25,244.57859625h22.5v55.421403749999996h-22.5Z" style="fill: #bab0ac;"></path><path d="M276.25,207.6876225h22.5v92.3123775h-22.5Z" style="fill: #f58518;"></path><path d="M151.25,226.58156625h22.5v73.41843374999999h-22.5Z" style="fill: #b279a2;"></path><path d="M176.25,239.292855h22.5v60.707145h-22.5Z" style="fill: #ff9da6;"></path><path d="M101.25,216.53089500000002h22.5v83.46910499999998h-22.5Z" style="fill: #54a24b;"></path><path d="M76.25,242.57239875h22.5v57.42760125000001h-22.5Z" style="fill: #72b7b2;"></path><path d="M51.25,215.8721175h22.5v84.1278825h-22.5Z" style="fill: #e45756;"></path></g><g class="mark-group role-legend"><g transform="translate(318,0)"><path class="background" d="M0,0h177v192h-177Z" style="pointer-events: none; fill: none;"></path><g><g class="mark-group role-legend-entry"><g transform="translate(0,16)"><path class="background" d="M0,0h0v0h0Z" style="pointer-events: none; fill: none;"></path><g><g class="mark-symbol role-legend-symbol" style="pointer-events: none;"><path transform="translate(5,5)" d="M-5,-5h10v10h-10Z" style="fill: #4c78a8; stroke-width: 1.5; opacity: 1;"></path><path transform="translate(5,20)" d="M-5,-5h10v10h-10Z" style="fill: #f58518; stroke-width: 1.5; opacity: 1;"></path><path transform="translate(5,35)" d="M-5,-5h10v10h-10Z" style="fill: #e45756; stroke-width: 1.5; opacity: 1;"></path><path transform="translate(5,50)" d="M-5,-5h10v10h-10Z" style="fill: #72b7b2; stroke-width: 1.5; opacity: 1;"></path><path transform="translate(5,65)" d="M-5,-5h10v10h-10Z" style="fill: #54a24b; stroke-width: 1.5; opacity: 1;"></path><path transform="translate(5,80)" d="M-5,-5h10v10h-10Z" style="fill: #eeca3b; stroke-width: 1.5; opacity: 1;"></path><path transform="translate(5,95)" d="M-5,-5h10v10h-10Z" style="fill: #b279a2; stroke-width: 1.5; opacity: 1;"></path><path transform="translate(5,110)" d="M-5,-5h10v10h-10Z" style="fill: #ff9da6; stroke-width: 1.5; opacity: 1;"></path><path transform="translate(5,125)" d="M-5,-5h10v10h-10Z" style="fill: #9d755d; stroke-width: 1.5; opacity: 1;"></path><path transform="translate(5,140)" d="M-5,-5h10v10h-10Z" style="fill: #bab0ac; stroke-width: 1.5; opacity: 1;"></path><path transform="translate(5,155)" d="M-5,-5h10v10h-10Z" style="fill: #4c78a8; stroke-width: 1.5; opacity: 1;"></path><path transform="translate(5,170)" d="M-5,-5h10v10h-10Z" style="fill: #f58518; stroke-width: 1.5; opacity: 1;"></path></g><g class="mark-text role-legend-label" style="pointer-events: none;"><text text-anchor="start" transform="translate(18,8)" style="font: 10px sans-serif; fill: #000; opacity: 1;">Star Trek</text><text text-anchor="start" transform="translate(18,23)" style="font: 10px sans-serif; fill: #000; opacity: 1;">Star Trek Beyond</text><text text-anchor="start" transform="translate(18,38)" style="font: 10px sans-serif; fill: #000; opacity: 1;">Star Trek II: The Wrath of Khan</text><text text-anchor="start" transform="translate(18,53)" style="font: 10px sans-serif; fill: #000; opacity: 1;">Star Trek III: The Search for Sp…</text><text text-anchor="start" transform="translate(18,68)" style="font: 10px sans-serif; fill: #000; opacity: 1;">Star Trek IV: The Voyage Home</text><text text-anchor="start" transform="translate(18,83)" style="font: 10px sans-serif; fill: #000; opacity: 1;">Star Trek Into Darkness</text><text text-anchor="start" transform="translate(18,98)" style="font: 10px sans-serif; fill: #000; opacity: 1;">Star Trek V: The Final Frontier</text><text text-anchor="start" transform="translate(18,113)" style="font: 10px sans-serif; fill: #000; opacity: 1;">Star Trek VI: The Undiscovered …</text><text text-anchor="start" transform="translate(18,128)" style="font: 10px sans-serif; fill: #000; opacity: 1;">Star Trek: First Contact</text><text text-anchor="start" transform="translate(18,143)" style="font: 10px sans-serif; fill: #000; opacity: 1;">Star Trek: Generations</text><text text-anchor="start" transform="translate(18,158)" style="font: 10px sans-serif; fill: #000; opacity: 1;">Star Trek: Nemesis</text><text text-anchor="start" transform="translate(18,173)" style="font: 10px sans-serif; fill: #000; opacity: 1;">Star Trek: The Motion Picture</text></g></g></g></g><g class="mark-text role-legend-title" style="pointer-events: none;"><text text-anchor="start" transform="translate(0,9)" style="font: bold 11px sans-serif; fill: #000; opacity: 1;">original_title</text></g></g></g></g><g class="mark-group role-axis"><g transform="translate(0.5,300.5)"><path class="background" d="M0,0h0v0h0Z" style="pointer-events: none; fill: none;"></path><g><g class="mark-rule role-axis-tick" style="pointer-events: none;"><line transform="translate(12,0)" x2="0" y2="5" style="fill: none; stroke: #888; stroke-width: 1; opacity: 1;"></line><line transform="translate(37,0)" x2="0" y2="5" style="fill: none; stroke: #888; stroke-width: 1; opacity: 1;"></line><line transform="translate(62,0)" x2="0" y2="5" style="fill: none; stroke: #888; stroke-width: 1; opacity: 1;"></line><line transform="translate(87,0)" x2="0" y2="5" style="fill: none; stroke: #888; stroke-width: 1; opacity: 1;"></line><line transform="translate(112,0)" x2="0" y2="5" style="fill: none; stroke: #888; stroke-width: 1; opacity: 1;"></line><line transform="translate(137,0)" x2="0" y2="5" style="fill: none; stroke: #888; stroke-width: 1; opacity: 1;"></line><line transform="translate(162,0)" x2="0" y2="5" style="fill: none; stroke: #888; stroke-width: 1; opacity: 1;"></line><line transform="translate(187,0)" x2="0" y2="5" style="fill: none; stroke: #888; stroke-width: 1; opacity: 1;"></line><line transform="translate(212,0)" x2="0" y2="5" style="fill: none; stroke: #888; stroke-width: 1; opacity: 1;"></line><line transform="translate(237,0)" x2="0" y2="5" style="fill: none; stroke: #888; stroke-width: 1; opacity: 1;"></line><line transform="translate(262,0)" x2="0" y2="5" style="fill: none; stroke: #888; stroke-width: 1; opacity: 1;"></line><line transform="translate(287,0)" x2="0" y2="5" style="fill: none; stroke: #888; stroke-width: 1; opacity: 1;"></line></g><g class="mark-text role-axis-label" style="pointer-events: none;"><text text-anchor="end" transform="translate(11.5,7) rotate(270) translate(0,3)" style="font: 10px sans-serif; fill: #000; opacity: 1;">Star Trek</text><text text-anchor="end" transform="translate(36.5,7) rotate(270) translate(0,3)" style="font: 10px sans-serif; fill: #000; opacity: 1;">Star Trek Beyond</text><text text-anchor="end" transform="translate(61.5,7) rotate(270) translate(0,3)" style="font: 10px sans-serif; fill: #000; opacity: 1;">Star Trek II: The Wrath of Khan</text><text text-anchor="end" transform="translate(86.5,7) rotate(270) translate(0,3)" style="font: 10px sans-serif; fill: #000; opacity: 1;">Star Trek III: The Search for Spock</text><text text-anchor="end" transform="translate(111.5,7) rotate(270) translate(0,3)" style="font: 10px sans-serif; fill: #000; opacity: 1;">Star Trek IV: The Voyage Home</text><text text-anchor="end" transform="translate(136.5,7) rotate(270) translate(0,3)" style="font: 10px sans-serif; fill: #000; opacity: 1;">Star Trek Into Darkness</text><text text-anchor="end" transform="translate(161.5,7) rotate(270) translate(0,3)" style="font: 10px sans-serif; fill: #000; opacity: 1;">Star Trek V: The Final Frontier</text><text text-anchor="end" transform="translate(186.5,7) rotate(270) translate(0,3)" style="font: 10px sans-serif; fill: #000; opacity: 1;">Star Trek VI: The Undiscovered Cou…</text><text text-anchor="end" transform="translate(211.5,7) rotate(270) translate(0,3)" style="font: 10px sans-serif; fill: #000; opacity: 1;">Star Trek: First Contact</text><text text-anchor="end" transform="translate(236.5,7) rotate(270) translate(0,3)" style="font: 10px sans-serif; fill: #000; opacity: 1;">Star Trek: Generations</text><text text-anchor="end" transform="translate(261.5,7) rotate(270) translate(0,3)" style="font: 10px sans-serif; fill: #000; opacity: 1;">Star Trek: Nemesis</text><text text-anchor="end" transform="translate(286.5,7) rotate(270) translate(0,3)" style="font: 10px sans-serif; fill: #000; opacity: 1;">Star Trek: The Motion Picture</text></g><g class="mark-rule role-axis-domain" style="pointer-events: none;"><line transform="translate(0,0)" x2="300" y2="0" style="fill: none; stroke: #888; stroke-width: 1; opacity: 1;"></line></g><g class="mark-text role-axis-title" style="pointer-events: none;"><text text-anchor="middle" transform="translate(150,197.62890625)" style="font: bold 11px sans-serif; fill: #000; opacity: 1;">title</text></g></g></g></g><g class="mark-group role-axis"><g transform="translate(0.5,0.5)"><path class="background" d="M0,0h0v0h0Z" style="pointer-events: none; fill: none;"></path><g><g class="mark-rule role-axis-tick" style="pointer-events: none;"><line transform="translate(0,300)" x2="-5" y2="0" style="fill: none; stroke: #888; stroke-width: 1; opacity: 1;"></line><line transform="translate(0,263)" x2="-5" y2="0" style="fill: none; stroke: #888; stroke-width: 1; opacity: 1;"></line><line transform="translate(0,225)" x2="-5" y2="0" style="fill: none; stroke: #888; stroke-width: 1; opacity: 1;"></line><line transform="translate(0,188)" x2="-5" y2="0" style="fill: none; stroke: #888; stroke-width: 1; opacity: 1;"></line><line transform="translate(0,150)" x2="-5" y2="0" style="fill: none; stroke: #888; stroke-width: 1; opacity: 1;"></line><line transform="translate(0,113)" x2="-5" y2="0" style="fill: none; stroke: #888; stroke-width: 1; opacity: 1;"></line><line transform="translate(0,75)" x2="-5" y2="0" style="fill: none; stroke: #888; stroke-width: 1; opacity: 1;"></line><line transform="translate(0,38)" x2="-5" y2="0" style="fill: none; stroke: #888; stroke-width: 1; opacity: 1;"></line><line transform="translate(0,0)" x2="-5" y2="0" style="fill: none; stroke: #888; stroke-width: 1; opacity: 1;"></line></g><g class="mark-text role-axis-label" style="pointer-events: none;"><text text-anchor="end" transform="translate(-7,303)" style="font: 10px sans-serif; fill: #000; opacity: 1;">0</text><text text-anchor="end" transform="translate(-7,265.5)" style="font: 10px sans-serif; fill: #000; opacity: 1;">10</text><text text-anchor="end" transform="translate(-7,228)" style="font: 10px sans-serif; fill: #000; opacity: 1;">20</text><text text-anchor="end" transform="translate(-7,190.5)" style="font: 10px sans-serif; fill: #000; opacity: 1;">30</text><text text-anchor="end" transform="translate(-7,153)" style="font: 10px sans-serif; fill: #000; opacity: 1;">40</text><text text-anchor="end" transform="translate(-7,115.5)" style="font: 10px sans-serif; fill: #000; opacity: 1;">50</text><text text-anchor="end" transform="translate(-7,78)" style="font: 10px sans-serif; fill: #000; opacity: 1;">60</text><text text-anchor="end" transform="translate(-7,40.5)" style="font: 10px sans-serif; fill: #000; opacity: 1;">70</text><text text-anchor="end" transform="translate(-7,3)" style="font: 10px sans-serif; fill: #000; opacity: 1;">80</text></g><g class="mark-rule role-axis-domain" style="pointer-events: none;"><line transform="translate(0,300)" x2="0" y2="-300" style="fill: none; stroke: #888; stroke-width: 1; opacity: 1;"></line></g><g class="mark-text role-axis-title" style="pointer-events: none;"><text text-anchor="middle" transform="translate(-34,150) rotate(-90) translate(0,-2)" style="font: bold 11px sans-serif; fill: #000; opacity: 1;">popularity</text></g></g></g></g></g></g></g></g></svg>