<svg class="marks" width="610" height="401" viewBox="0 0 610 401" version="1.1" xmlns="http://www.w3.org/2000/svg" xmlns:xlink="http://www.w3.org/1999/xlink"><g transform="translate(90,11)"><g class="mark-group role-frame root"><g transform="translate(0,0)"><path class="background" d="M0.5,0.5h350v350h-350Z" style="fill: none; stroke: #ddd;"></path><g><g class="mark-group role-axis"><g transform="translate(0.5,350.5)"><path class="background" d="M0,0h0v0h0Z" style="pointer-events: none; fill: none;"></path><g><g class="mark-rule role-axis-grid" style="pointer-events: none;"><line transform="translate(0,-350)" x2="0" y2="350" style="fill: none; stroke: #ddd; stroke-width: 1; opacity: 1;"></line><line transform="translate(27,-350)" x2="0" y2="350" style="fill: none; stroke: #ddd; stroke-width: 1; opacity: 1;"></line><line transform="translate(54,-350)" x2="0" y2="350" style="fill: none; stroke: #ddd; stroke-width: 1; opacity: 1;"></line><line transform="translate(81,-350)" x2="0" y2="350" style="fill: none; stroke: #ddd; stroke-width: 1; opacity: 1;"></line><line transform="translate(108,-350)" x2="0" y2="350" style="fill: none; stroke: #ddd; stroke-width: 1; opacity: 1;"></line><line transform="translate(135,-350)" x2="0" y2="350" style="fill: none; stroke: #ddd; stroke-width: 1; opacity: 1;"></line><line transform="translate(162,-350)" x2="0" y2="350" style="fill: none; stroke: #ddd; stroke-width: 1; opacity: 1;"></line><line transform="translate(188,-350)" x2="0" y2="350" style="fill: none; stroke: #ddd; stroke-width: 1; opacity: 1;"></line><line transform="translate(215,-350)" x2="0" y2="350" style="fill: none; stroke: #ddd; stroke-width: 1; opacity: 1;"></line><line transform="translate(242,-350)" x2="0" y2="350" style="fill: none; stroke: #ddd; stroke-width: 1; opacity: 1;"></line><line transform="translate(269,-350)" x2="0" y2="350" style="fill: none; stroke: #ddd; stroke-width: 1; opacity: 1;"></line><line transform="translate(296,-350)" x2="0" y2="350" style="fill: none; stroke: #ddd; stroke-width: 1; opacity: 1;"></line><line transform="translate(323,-350)" x2="0" y2="350" style="fill: none; stroke: #ddd; stroke-width: 1; opacity: 1;"></line><line transform="translate(350,-350)" x2="0" y2="350" style="fill: none; stroke: #ddd; stroke-width: 1; opacity: 1;"></line></g></g></g></g><g class="mark-group role-axis"><g transform="translate(0.5,0.5)"><path class="background" d="M0,0h0v0h0Z" style="pointer-events: none; fill: none;"></path><g><g class="mark-rule role-axis-grid" style="pointer-events: none;"><line transform="translate(0,350)" x2="350" y2="0" style="fill: none; stroke: #ddd; stroke-width: 1; opacity: 1;"></line><line transform="translate(0,306)" x2="350" y2="0" style="fill: none; stroke: #ddd; stroke-width: 1; opacity: 1;"></line><line transform="translate(0,263)" x2="350" y2="0" style="fill: none; stroke: #ddd; stroke-width: 1; opacity: 1;"></line><line transform="translate(0,219)" x2="350" y2="0" style="fill: none; stroke: #ddd; stroke-width: 1; opacity: 1;"></line><line transform="translate(0,175)" x2="350" y2="0" style="fill: none; stroke: #ddd; stroke-width: 1; opacity: 1;"></line><line transform="translate(0,131)" x2="350" y2="0" style="fill: none; stroke: #ddd; stroke-width: 1; opacity: 1;"></line><line transform="translate(0,88)" x2="350" y2="0" style="fill: none; stroke: #ddd; stroke-width: 1; opacity: 1;"></line><line transform="translate(0,44)" x2="350" y2="0" style="fill: none; stroke: #ddd; stroke-width: 1; opacity: 1;"></line><line transform="translate(0,0)" x2="350" y2="0" style="fill: none; stroke: #ddd; stroke-width: 1; opacity: 1;"></line></g></g></g></g><g class="mark-symbol role-mark marks"><path transform="translate(282.6923076923077,149.0301946875)" d="M2.7386127875258306,0A2.7386127875258306,2.7386127875258306,0,1,1,-2.7386127875258306,0A2.7386127875258306,2.7386127875258306,0,1,1,2.7386127875258306,0" style="fill: #eeca3b; stroke-width: 2; opacity: 0.7;"></path><path transform="translate(336.53846153846155,22.810035937500004)" d="M2.7386127875258306,0A2.7386127875258306,2.7386127875258306,0,1,1,-2.7386127875258306,0A2.7386127875258306,2.7386127875258306,0,1,1,2.7386127875258306,0" style="fill: #72b7b2; stroke-width: 2; opacity: 0.7;"></path><path transform="translate(239.6153846153846,112.02853068750002)" d="M2.7386127875258306,0A2.7386127875258306,2.7386127875258306,0,1,1,-2.7386127875258306,0A2.7386127875258306,2.7386127875258306,0,1,1,2.7386127875258306,0" style="fill: #e45756; stroke-width: 2; opacity: 0.7;"></path><path transform="translate(215.3846153846154,195.28944575)" d="M2.7386127875258306,0A2.7386127875258306,2.7386127875258306,0,1,1,-2.7386127875258306,0A2.7386127875258306,2.7386127875258306,0,1,1,2.7386127875258306,0" style="fill: #54a24b; stroke-width: 2; opacity: 0.7;"></path><path transform="translate(201.9230769230769,186.784997)" d="M2.7386127875258306,0A2.7386127875258306,2.7386127875258306,0,1,1,-2.7386127875258306,0A2.7386127875258306,2.7386127875258306,0,1,1,2.7386127875258306,0" style="fill: #f58518; stroke-width: 2; opacity: 0.7;"></path><path transform="translate(100.96153846153845,220.35145693750002)" d="M2.7386127875258306,0A2.7386127875258306,2.7386127875258306,0,1,1,-2.7386127875258306,0A2.7386127875258306,2.7386127875258306,0,1,1,2.7386127875258306,0" style="fill: #4c78a8; stroke-width: 2; opacity: 0.7;"></path></g><g class="mark-group role-legend"><g transform="translate(368,0)"><path class="background" d="M0,0h147v102h-147Z" style="pointer-events: none; fill: none;"></path><g><g class="mark-group role-legend-entry"><g transform="translate(0,16)"><path class="background" d="M0,0h0v0h0Z" style="pointer-events: none; fill: none;"></path><g><g class="mark-symbol role-legend-symbol" style="pointer-events: none;"><path transform="translate(5,5)" d="M5,0A5,5,0,1,1,-5,0A5,5,0,1,1,5,0" style="fill: #4c78a8; stroke-width: 1.5; opacity: 0.7;"></path><path transform="translate(5,20)" d="M5,0A5,5,0,1,1,-5,0A5,5,0,1,1,5,0" style="fill: #f58518; stroke-width: 1.5; opacity: 0.7;"></path><path transform="translate(5,35)" d="M5,0A5,5,0,1,1,-5,0A5,5,0,1,1,5,0" style="fill: #e45756; stroke-width: 1.5; opacity: 0.7;"></path><path transform="translate(5,50)" d="M5,0A5,5,0,1,1,-5,0A5,5,0,1,1,5,0" style="fill: #72b7b2; stroke-width: 1.5; opacity: 0.7;"></path><path transform="translate(5,65)" d="M5,0A5,5,0,1,1,-5,0A5,5,0,1,1,5,0" style="fill: #54a24b; stroke-width: 1.5; opacity: 0.7;"></path><path transform="translate(5,80)" d="M5,0A5,5,0,1,1,-5,0A5,5,0,1,1,5,0" style="fill: #eeca3b; stroke-width: 1.5; opacity: 0.7;"></path></g><g class="mark-text role-legend-label" style="pointer-events: none;"><text text-anchor="start" transform="translate(18,8)" style="font: 10px sans-serif; fill: #000; opacity: 1;">X-Men</text><text text-anchor="start" transform="translate(18,23)" style="font: 10px sans-serif; fill: #000; opacity: 1;">X-Men Origins: Wolverine</text><text text-anchor="start" transform="translate(18,38)" style="font: 10px sans-serif; fill: #000; opacity: 1;">X-Men: Apocalypse</text><text text-anchor="start" transform="translate(18,53)" style="font: 10px sans-serif; fill: #000; opacity: 1;">X-Men: Days of Future Past</text><text text-anchor="start" transform="translate(18,68)" style="font: 10px sans-serif; fill: #000; opacity: 1;">X-Men: First Class</text><text text-anchor="start" transform="translate(18,83)" style="font: 10px sans-serif; fill: #000; opacity: 1;">X-Men: The Last Stand</text></g></g></g></g><g class="mark-text role-legend-title" style="pointer-events: none;"><text text-anchor="start" transform="translate(0,9)" style="font: bold 11px sans-serif; fill: #000; opacity: 1;">original_title</text></g></g></g></g><g class="mark-group role-axis"><g transform="translate(0.5,350.5)"><path class="background" d="M0,0h0v0h0Z" style="pointer-events: none; fill: none;"></path><g><g class="mark-rule role-axis-tick" style="pointer-events: none;"><line transform="translate(0,0)" x2="0" y2="5" style="fill: none; stroke: #888; stroke-width: 1; opacity: 1;"></line><line transform="translate(27,0)" x2="0" y2="5" style="fill: none; stroke: #888; stroke-width: 1; opacity: 1;"></line><line transform="translate(54,0)" x2="0" y2="5" style="fill: none; stroke: #888; stroke-width: 1; opacity: 1;"></line><line transform="translate(81,0)" x2="0" y2="5" style="fill: none; stroke: #888; stroke-width: 1; opacity: 1;"></line><line transform="translate(108,0)" x2="0" y2="5" style="fill: none; stroke: #888; stroke-width: 1; opacity: 1;"></line><line transform="translate(135,0)" x2="0" y2="5" style="fill: none; stroke: #888; stroke-width: 1; opacity: 1;"></line><line transform="translate(162,0)" x2="0" y2="5" style="fill: none; stroke: #888; stroke-width: 1; opacity: 1;"></line><line transform="translate(188,0)" x2="0" y2="5" style="fill: none; stroke: #888; stroke-width: 1; opacity: 1;"></line><line transform="translate(215,0)" x2="0" y2="5" style="fill: none; stroke: #888; stroke-width: 1; opacity: 1;"></line><line transform="translate(242,0)" x2="0" y2="5" style="fill: none; stroke: #888; stroke-width: 1; opacity: 1;"></line><line transform="translate(269,0)" x2="0" y2="5" style="fill: none; stroke: #888; stroke-width: 1; opacity: 1;"></line><line transform="translate(296,0)" x2="0" y2="5" style="fill: none; stroke: #888; stroke-width: 1; opacity: 1;"></line><line transform="translate(323,0)" x2="0" y2="5" style="fill: none; stroke: #888; stroke-width: 1; opacity: 1;"></line><line transform="translate(350,0)" x2="0" y2="5" style="fill: none; stroke: #888; stroke-width: 1; opacity: 1;"></line></g><g class="mark-text role-axis-label" style="pointer-events: none;"><text text-anchor="start" transform="translate(0,15)" style="font: 10px sans-serif; fill: #000; opacity: 1;">0</text><text text-anchor="middle" transform="translate(26.923076923076923,15)" style="font: 10px sans-serif; fill: #000; opacity: 0;">20,000,000</text><text text-anchor="middle" transform="translate(53.84615384615385,15)" style="font: 10px sans-serif; fill: #000; opacity: 0;">40,000,000</text><text text-anchor="middle" transform="translate(80.76923076923077,15)" style="font: 10px sans-serif; fill: #000; opacity: 0;">60,000,000</text><text text-anchor="middle" transform="translate(107.6923076923077,15)" style="font: 10px sans-serif; fill: #000; opacity: 1;">80,000,000</text><text text-anchor="middle" transform="translate(134.6153846153846,15)" style="font: 10px sans-serif; fill: #000; opacity: 0;">100,000,000</text><text text-anchor="middle" transform="translate(161.53846153846155,15)" style="font: 10px sans-serif; fill: #000; opacity: 0;">120,000,000</text><text text-anchor="middle" transform="translate(188.46153846153845,15)" style="font: 10px sans-serif; fill: #000; opacity: 0;">140,000,000</text><text text-anchor="middle" transform="translate(215.3846153846154,15)" style="font: 10px sans-serif; fill: #000; opacity: 1;">160,000,000</text><text text-anchor="middle" transform="translate(242.3076923076923,15)" style="font: 10px sans-serif; fill: #000; opacity: 0;">180,000,000</text><text text-anchor="middle" transform="translate(269.2307692307692,15)" style="font: 10px sans-serif; fill: #000; opacity: 0;">200,000,000</text><text text-anchor="middle" transform="translate(296.15384615384613,15)" style="font: 10px sans-serif; fill: #000; opacity: 0;">220,000,000</text><text text-anchor="middle" transform="translate(323.0769230769231,15)" style="font: 10px sans-serif; fill: #000; opacity: 1;">240,000,000</text><text text-anchor="end" transform="translate(350,15)" style="font: 10px sans-serif; fill: #000; opacity: 0;">260,000,000</text></g><g class="mark-rule role-axis-domain" style="pointer-events: none;"><line transform="translate(0,0)" x2="350" y2="0" style="fill: none; stroke: #888; stroke-width: 1; opacity: 1;"></line></g><g class="mark-text role-axis-title" style="pointer-events: none;"><text text-anchor="middle" transform="translate(175,31)" style="font: bold 11px sans-serif; fill: #000; opacity: 1;">budget</text></g></g></g></g><g class="mark-group role-axis"><g transform="translate(0.5,0.5)"><path class="background" d="M0,0h0v0h0Z" style="pointer-events: none; fill: none;"></path><g><g class="mark-rule role-axis-tick" style="pointer-events: none;"><line transform="translate(0,350)" x2="-5" y2="0" style="fill: none; stroke: #888; stroke-width: 1; opacity: 1;"></line><line transform="translate(0,306)" x2="-5" y2="0" style="fill: none; stroke: #888; stroke-width: 1; opacity: 1;"></line><line transform="translate(0,263)" x2="-5" y2="0" style="fill: none; stroke: #888; stroke-width: 1; opacity: 1;"></line><line transform="translate(0,219)" x2="-5" y2="0" style="fill: none; stroke: #888; stroke-width: 1; opacity: 1;"></line><line transform="translate(0,175)" x2="-5" y2="0" style="fill: none; stroke: #888; stroke-width: 1; opacity: 1;"></line><line transform="translate(0,131)" x2="-5" y2="0" style="fill: none; stroke: #888; stroke-width: 1; opacity: 1;"></line><line transform="translate(0,88)" x2="-5" y2="0" style="fill: none; stroke: #888; stroke-width: 1; opacity: 1;"></line><line transform="translate(0,44)" x2="-5" y2="0" style="fill: none; stroke: #888; stroke-width: 1; opacity: 1;"></line><line transform="translate(0,0)" x2="-5" y2="0" style="fill: none; stroke: #888; stroke-width: 1; opacity: 1;"></line></g><g class="mark-text role-axis-label" style="pointer-events: none;"><text text-anchor="end" transform="translate(-7,353)" style="font: 10px sans-serif; fill: #000; opacity: 1;">0</text><text text-anchor="end" transform="translate(-7,309.25)" style="font: 10px sans-serif; fill: #000; opacity: 1;">100,000,000</text><text text-anchor="end" transform="translate(-7,265.5)" style="font: 10px sans-serif; fill: #000; opacity: 1;">200,000,000</text><text text-anchor="end" transform="translate(-7,221.75)" style="font: 10px sans-serif; fill: #000; opacity: 1;">300,000,000</text><text text-anchor="end" transform="translate(-7,178)" style="font: 10px sans-serif; fill: #000; opacity: 1;">400,000,000</text><text text-anchor="end" transform="translate(-7,134.25)" style="font: 10px sans-serif; fill: #000; opacity: 1;">500,000,000</text><text text-anchor="end" transform="translate(-7,90.5)" style="font: 10px sans-serif; fill: #000; opacity: 1;">600,000,000</text><text text-anchor="end" transform="translate(-7,46.75)" style="font: 10px sans-serif; fill: #000; opacity: 1;">700,000,000</text><text text-anchor="end" transform="translate(-7,3)" style="font: 10px sans-serif; fill: #000; opacity: 1;">800,000,000</text></g><g class="mark-rule role-axis-domain" style="pointer-events: none;"><line transform="translate(0,350)" x2="0" y2="-350" style="fill: none; stroke: #888; stroke-width: 1; opacity: 1;"></line></g><g class="mark-text role-axis-title" style="pointer-events: none;"><text text-anchor="middle" transform="translate(-72,175) rotate(-90) translate(0,-2)" style="font: bold 11px sans-serif; fill: #000; opacity: 1;">revenue</text></g></g></g></g></g></g></g></g></svg>